<svg width="24" height="24" viewBox="0 0 24 24" fill="none" xmlns="http://www.w3.org/2000/svg">
<path fill-rule="evenodd" clip-rule="evenodd" d="M3 3H14C15.1046 3 16 3.89543 16 5V12C16 13.1046 15.1046 14 14 14H7.5L4 17L3.5 14H3C1.89543 14 1 13.1046 1 12V5C1 3.89543 1.89543 3 3 3ZM7.13008 13H14C14.5523 13 15 12.5523 15 12V5C15 4.44772 14.5523 4 14 4H3C2.44772 4 2 4.44772 2 5V12C2 12.5523 2.44772 13 3 13H4.34713L4.695 15.0872L7.13008 13ZM21 17.5H20.0764L19.6525 20.0436L16.685 17.5H10C9.17157 17.5 8.5 16.8284 8.5 16V15H7.5V16C7.5 17.3807 8.61929 18.5 10 18.5H16.315L20.3475 21.9564L20.9236 18.5H21C22.3807 18.5 23.5 17.3807 23.5 16V9C23.5 7.61929 22.3807 6.5 21 6.5H17V7.5H21C21.8284 7.5 22.5 8.17157 22.5 9V16C22.5 16.8284 21.8284 17.5 21 17.5Z" fill="#141414"/>
</svg>
