<svg width="86" height="7" viewBox="0 0 86 7" fill="none" xmlns="http://www.w3.org/2000/svg">
<path fill-rule="evenodd" clip-rule="evenodd" d="M0 0H6.2947V1.27275H4.79053L6.88639 5.09091L8.98225 1.27273L7.78462 1.27275L7.77465 0H12.2757L12.2857 1.30634H10.7784L7.79707 7H4.19172L1.49704 1.27273L0 1.27275V0ZM25.0102 7C27.6758 7 29.8367 5.433 29.8367 3.5C29.8367 1.567 27.6758 0 25.0102 0C22.3446 0 20.1837 1.567 20.1837 3.5C20.1837 5.433 22.3446 7 25.0102 7ZM25.0102 6.36363C26.0098 6.36363 26.8202 5.08154 26.8202 3.5C26.8202 1.91845 26.0098 0.636361 25.0102 0.636361C24.0106 0.636361 23.2003 1.91845 23.2003 3.5C23.2003 5.08154 24.0106 6.36363 25.0102 6.36363ZM39.4898 1.27273V0H45.0476V1.27273H43.585V6.05605H45.6327C47.0952 6.05605 47.0952 4.77273 47.0952 3.81818H48.2653V7H39.4898V6.05605H40.9524V1.27273H39.4898ZM56.1633 0H62.458V1.27275H60.9538L63.0497 5.09091L65.1455 1.27273L63.9479 1.27275L63.9379 0H68.439L68.449 1.30634H66.9416L63.9603 7H60.355L57.6603 1.27273L56.1633 1.27275V0ZM86 3.5C86 5.433 83.8391 7 81.1735 7C78.5079 7 76.3469 5.433 76.3469 3.5C76.3469 1.567 78.5079 0 81.1735 0C83.8391 0 86 1.567 86 3.5ZM82.9834 3.5C82.9834 5.08154 82.1731 6.36363 81.1735 6.36363C80.1739 6.36363 79.3635 5.08154 79.3635 3.5C79.3635 1.91845 80.1739 0.636361 81.1735 0.636361C82.1731 0.636361 82.9834 1.91845 82.9834 3.5Z" fill="#141414"/>
</svg>
